name C:\Users\u0101727\Documents\MyRepositories\upper-imu-dc\Results\main_tracking\Case_67\kinematics.mot
datacolumns 10
datarows 47
range 3.50000000 3.96000000
endheader 
time	clav_prot	clav_elev	scapula_abduction	scapula_elevation	scapula_upward_rot	scapula_winging	plane_elv	shoulder_elv	axial_rot	
          3.50000000	        -44.38866757	          9.02143057	          0.98049874	         -1.63253950	         84.26036563	        -11.75225687	         37.80915269	         87.70638430	         -7.40703829	
          3.51000000	        -44.39305256	          9.02617142	          0.96226797	         -1.63128467	         84.24781792	        -11.75855991	         37.85160333	         87.67711115	         -7.37024187	
          3.52000000	        -44.39621266	          9.03025285	          0.94515012	         -1.63055823	         84.23378210	        -11.76416514	         37.89219475	         87.64724780	         -7.33362599	
          3.53000000	        -44.39815770	          9.03345836	          0.92926782	         -1.63049328	         84.21837219	        -11.76900304	         37.93054660	         87.61681654	         -7.29699850	
          3.54000000	        -44.39891738	          9.03559760	          0.91472313	         -1.63120367	         84.20172784	        -11.77301915	         37.96636298	         87.58585789	         -7.26008621	
          3.55000000	        -44.39854178	          9.03651611	          0.90159321	         -1.63277758	         84.18401296	        -11.77617713	         37.99943690	         87.55443079	         -7.22255222	
          3.56000000	        -44.39710216	          9.03610255	          0.88992560	         -1.63527306	         84.16541356	        -11.77846142	         38.02965012	         87.52260973	         -7.18402997	
          3.57000000	        -44.39468980	          9.03429342	          0.87973421	         -1.63871550	         84.14613149	        -11.77987883	         38.05697026	         87.49048109	         -7.14417159	
          3.58000000	        -44.39140938	          9.03107971	          0.87099821	         -1.64309430	         84.12637040	        -11.78045837	         38.08144278	         87.45814415	         -7.10270560	
          3.59000000	        -44.38737112	          9.02651187	          0.86365912	         -1.64836137	         84.10631584	        -11.78025098	         38.10318350	         87.42571598	         -7.05949616	
          3.60000000	        -44.38267952	          9.02069731	          0.85762570	         -1.65443422	         84.08611596	        -11.77932505	         38.12236842	         87.39333439	         -7.01458945	
          3.61000000	        -44.37742168	          9.01379856	          0.85278400	         -1.66119790	         84.06586790	        -11.77776076	         38.13921992	         87.36115328	         -6.96824050	
          3.62000000	        -44.37166438	          9.00602342	          0.84900850	         -1.66851077	         84.04562281	        -11.77564488	         38.15399472	         87.32931956	         -6.92092747	
          3.63000000	        -44.36544901	          8.99760873	          0.84618726	         -1.67621301	         84.02540211	        -11.77306050	         38.16696810	         87.29794033	         -6.87332906	
          3.64000000	        -44.35879202	          8.98880847	          0.84422441	         -1.68413462	         84.00519818	        -11.77008427	         38.17843416	         87.26706859	         -6.82631087	
          3.65000000	        -44.35168394	          8.97988212	          0.84303935	         -1.69210415	         83.98496730	        -11.76678403	         38.18871181	         87.23670028	         -6.78089710	
          3.66000000	        -44.34408809	          8.97108350	          0.84257148	         -1.69995608	         83.96462940	        -11.76321526	         38.19814952	         87.20676888	         -6.73822753	
          3.67000000	        -44.33593859	          8.96265201	          0.84278661	         -1.70753653	         83.94406926	        -11.75941727	         38.20712909	         87.17714310	         -6.69950718	
          3.68000000	        -44.32713751	          8.95480584	          0.84368457	         -1.71470735	         83.92313804	        -11.75540937	         38.21606698	         87.14762855	         -6.66595139	
          3.69000000	        -44.31755299	          8.94773841	          0.84530933	         -1.72134741	         83.90166112	        -11.75118733	         38.22540994	         87.11796607	         -6.63872473	
          3.70000000	        -44.30702263	          8.94161706	          0.84776120	         -1.72735089	         83.87946117	        -11.74672108	         38.23562195	         87.08781632	         -6.61887110	
          3.71000000	        -44.29536706	          8.93658178	          0.85120264	         -1.73262468	         83.85639571	        -11.74195667	         38.24716876	         87.05672950	         -6.60723968	
          3.72000000	        -44.28241202	          8.93274323	          0.85584395	         -1.73708797	         83.83238676	        -11.73682472	         38.26051813	         87.02412538	         -6.60442716	
          3.73000000	        -44.26800141	          8.93018587	          0.86190902	         -1.74067304	         83.80740625	        -11.73125231	         38.27615609	         86.98932781	         -6.61076036	
          3.74000000	        -44.25198381	          8.92897149	          0.86960528	         -1.74333026	         83.78140776	        -11.72516716	         38.29459709	         86.95166685	         -6.62631898	
          3.75000000	        -44.23417847	          8.92913281	          0.87911884	         -1.74503976	         83.75424248	        -11.71848878	         38.31638974	         86.91060319	         -6.65096987	
          3.76000000	        -44.21434086	          8.93067932	          0.89062683	         -1.74581169	         83.72560058	        -11.71111803	         38.34212543	         86.86582044	         -6.68439313	
          3.77000000	        -44.19214256	          8.93361745	          0.90430925	         -1.74567344	         83.69498839	        -11.70293349	         38.37242825	         86.81726522	         -6.72609510	
          3.78000000	        -44.16717077	          8.93792923	          0.92035894	         -1.74468326	         83.66173384	        -11.69378483	         38.40791677	         86.76513072	         -6.77541885	
          3.79000000	        -44.13892610	          8.94356176	          0.93900611	         -1.74293405	         83.62501032	        -11.68348485	         38.44919196	         86.70981318	         -6.83156034	
          3.80000000	        -44.10682423	          8.95042001	          0.96054831	         -1.74055311	         83.58387737	        -11.67180198	         38.49683807	         86.65185615	         -6.89359250	
          3.81000000	        -44.07021077	          8.95834754	          0.98537499	         -1.73770906	         83.53733983	        -11.65845518	         38.55141442	         86.59187961	         -6.96048999	
          3.82000000	        -44.02838567	          8.96711250	          1.01398575	         -1.73461403	         83.48442154	        -11.64311390	         38.61344804	         86.53050150	         -7.03115097	
          3.83000000	        -43.98063498	          8.97640556	          1.04699698	         -1.73151811	         83.42424365	        -11.62540521	         38.68343711	         86.46826603	         -7.10442355	
          3.84000000	        -43.92626880	          8.98585165	          1.08512601	         -1.72869622	         83.35609207	        -11.60493039	         38.76186356	         86.40559369	         -7.17914391	
          3.85000000	        -43.86466191	          8.99503470	          1.12914842	         -1.72642975	         83.27945928	        -11.58129098	         38.84920766	         86.34276096	         -7.25418947	
          3.86000000	        -43.79529553	          9.00353186	          1.17982992	         -1.72498536	         83.19405888	        -11.55412244	         38.94595561	         86.27989708	         -7.32853781	
          3.87000000	        -43.71779804	          9.01094593	          1.23784871	         -1.72459689	         83.09982476	        -11.52312880	         39.05258378	         86.21696622	         -7.40131086	
          3.88000000	        -43.63197188	          9.01692788	          1.30373039	         -1.72545507	         82.99689296	        -11.48810843	         39.16954197	         86.15375116	         -7.47180217	
          3.89000000	        -43.53778847	          9.02120207	          1.37780328	         -1.72769782	         82.88554005	        -11.44896700	         39.29729149	         86.08991851	         -7.53952776	
          3.90000000	        -43.43536097	          9.02358908	          1.46017746	         -1.73140246	         82.76610309	        -11.40571838	         39.43634568	         86.02510987	         -7.60426601	
          3.91000000	        -43.32490566	          9.02401071	          1.55076105	         -1.73658659	         82.63891701	        -11.35847070	         39.58726669	         85.95899115	         -7.66605283	
          3.92000000	        -43.20670374	          9.02248156	          1.64929826	         -1.74321508	         82.50427730	        -11.30740497	         39.75063795	         85.89125950	         -7.72514595	
          3.93000000	        -43.08106941	          9.01909765	          1.75541053	         -1.75120732	         82.36241946	        -11.25275428	         39.92703562	         85.82163163	         -7.78198195	
          3.94000000	        -42.94832547	          9.01402418	          1.86863255	         -1.76044454	         82.21350855	        -11.19478617	         40.11700651	         85.74982638	         -7.83713788	
          3.95000000	        -42.80878666	          9.00748128	          1.98844133	         -1.77077820	         82.05763565	        -11.13378829	         40.32105218	         85.67554574	         -7.89130167	
          3.96000000	        -42.66274958	          8.99972730	          2.11427805	         -1.78204002	         81.89481923	        -11.07005713	         40.53961785	         85.59845773	         -7.94525034	
